<svg xmlns="http://www.w3.org/2000/svg" xmlns:xlink="http://www.w3.org/1999/xlink" width="500" zoomAndPan="magnify" viewBox="0 0 375 374.999991" height="500" preserveAspectRatio="xMidYMid meet" version="1.0"><defs><clipPath id="b1c511c85b"><path d="M 7.195312 0 L 375 0 L 375 367.804688 L 7.195312 367.804688 Z M 7.195312 0 " clip-rule="nonzero"/></clipPath><clipPath id="2c154194c1"><path d="M 191.097656 0 C 89.53125 0 7.195312 82.335938 7.195312 183.902344 C 7.195312 285.46875 89.53125 367.804688 191.097656 367.804688 C 292.664062 367.804688 375 285.46875 375 183.902344 C 375 82.335938 292.664062 0 191.097656 0 Z M 191.097656 0 " clip-rule="nonzero"/></clipPath><clipPath id="00597bfe49"><path d="M 0.195312 0 L 368 0 L 368 367.804688 L 0.195312 367.804688 Z M 0.195312 0 " clip-rule="nonzero"/></clipPath><clipPath id="ceadb44e3b"><path d="M 184.097656 0 C 82.53125 0 0.195312 82.335938 0.195312 183.902344 C 0.195312 285.46875 82.53125 367.804688 184.097656 367.804688 C 285.664062 367.804688 368 285.46875 368 183.902344 C 368 82.335938 285.664062 0 184.097656 0 Z M 184.097656 0 " clip-rule="nonzero"/></clipPath><clipPath id="ba4e7dad9e"><rect x="0" width="368" y="0" height="368"/></clipPath><clipPath id="1a404c5a7f"><path d="M 3.597656 183.609375 L 371.402344 183.609375 L 371.402344 205.464844 L 3.597656 205.464844 Z M 3.597656 183.609375 " clip-rule="nonzero"/></clipPath><clipPath id="e9eded3067"><path d="M 0.597656 0.609375 L 368.402344 0.609375 L 368.402344 22.464844 L 0.597656 22.464844 Z M 0.597656 0.609375 " clip-rule="nonzero"/></clipPath><clipPath id="068e7596e7"><rect x="0" width="369" y="0" height="23"/></clipPath><clipPath id="1e3c468e37"><path d="M 149.945312 62.105469 L 225.179688 62.105469 L 225.179688 116.191406 L 149.945312 116.191406 Z M 149.945312 62.105469 " clip-rule="nonzero"/></clipPath><clipPath id="6b4b62c2fb"><path d="M 0.945312 0.105469 L 76.179688 0.105469 L 76.179688 54.191406 L 0.945312 54.191406 Z M 0.945312 0.105469 " clip-rule="nonzero"/></clipPath><clipPath id="58637a374b"><rect x="0" width="77" y="0" height="55"/></clipPath><clipPath id="978c500ccf"><path d="M 94.699219 264.179688 L 268.628906 264.179688 L 268.628906 311.214844 L 94.699219 311.214844 Z M 94.699219 264.179688 " clip-rule="nonzero"/></clipPath><clipPath id="578a02752a"><path d="M 0.699219 0.179688 L 174.628906 0.179688 L 174.628906 47.214844 L 0.699219 47.214844 Z M 0.699219 0.179688 " clip-rule="nonzero"/></clipPath><clipPath id="76ba4c6b55"><rect x="0" width="175" y="0" height="48"/></clipPath><clipPath id="63d978ec9a"><path d="M 162.007812 103.117188 L 202.507812 103.117188 L 202.507812 123.367188 L 162.007812 123.367188 Z M 162.007812 103.117188 " clip-rule="nonzero"/></clipPath><clipPath id="a0907e1dad"><path d="M 117 257 L 145 257 L 145 272 L 117 272 Z M 117 257 " clip-rule="nonzero"/></clipPath><clipPath id="af1dbbc311"><path d="M 144.171875 271.425781 L 116.429688 270.757812 L 116.753906 257.261719 L 144.496094 257.929688 Z M 144.171875 271.425781 " clip-rule="nonzero"/></clipPath><clipPath id="4fab4f1b0d"><path d="M 144.171875 271.425781 L 116.429688 270.757812 L 116.753906 257.261719 L 144.496094 257.929688 Z M 144.171875 271.425781 " clip-rule="nonzero"/></clipPath><clipPath id="a4257fa2ac"><path d="M 230 256 L 259 256 L 259 270 L 230 270 Z M 230 256 " clip-rule="nonzero"/></clipPath><clipPath id="bf223730e0"><path d="M 257.824219 270.34375 L 230.082031 269.671875 L 230.410156 256.175781 L 258.152344 256.847656 Z M 257.824219 270.34375 " clip-rule="nonzero"/></clipPath><clipPath id="8916305444"><path d="M 257.824219 270.34375 L 230.082031 269.671875 L 230.410156 256.175781 L 258.152344 256.847656 Z M 257.824219 270.34375 " clip-rule="nonzero"/></clipPath></defs><g clip-path="url(#b1c511c85b)"><g clip-path="url(#2c154194c1)"><g transform="matrix(1, 0, 0, 1, 7, 0)"><g clip-path="url(#ba4e7dad9e)"><g clip-path="url(#00597bfe49)"><g clip-path="url(#ceadb44e3b)"><path fill="#000000" d="M 0.195312 0 L 368 0 L 368 367.804688 L 0.195312 367.804688 Z M 0.195312 0 " fill-opacity="1" fill-rule="nonzero"/></g></g></g></g></g></g><g clip-path="url(#1a404c5a7f)"><g transform="matrix(1, 0, 0, 1, 3, 183)"><g clip-path="url(#068e7596e7)"><g clip-path="url(#e9eded3067)"><path fill="#ffffff" d="M 0.597656 0.609375 L 368.371094 0.609375 L 368.371094 22.464844 L 0.597656 22.464844 Z M 0.597656 0.609375 " fill-opacity="1" fill-rule="nonzero"/></g></g></g></g><path stroke-linecap="round" transform="matrix(0.530737, 0.529922, -0.529922, 0.530737, 66.44893, 169.54887)" fill="none" stroke-linejoin="miter" d="M 20.149414 30.743024 C 64.124555 9.070105 108.101444 9.085486 152.076394 30.792846 " stroke="#ffffff" stroke-width="29" stroke-opacity="1" stroke-miterlimit="4"/><path stroke-linecap="round" transform="matrix(0.53033, -0.53033, 0.53033, 0.53033, 215.924551, 261.369943)" fill="none" stroke-linejoin="miter" d="M 20.148936 30.742978 C 64.125825 9.069417 108.099031 9.084148 152.075919 30.787172 " stroke="#ffffff" stroke-width="29" stroke-opacity="1" stroke-miterlimit="4"/><path stroke-linecap="round" transform="matrix(0.210822, -0.71976, 0.71976, 0.210822, 118.03373, 270.744153)" fill="none" stroke-linejoin="miter" d="M 14.501702 14.499749 L 217.113729 14.499386 " stroke="#ffffff" stroke-width="29" stroke-opacity="1" stroke-miterlimit="4"/><path stroke-linecap="round" transform="matrix(0.208167, -0.720532, 0.720532, 0.208167, 123.737634, 214.613556)" fill="none" stroke-linejoin="miter" d="M 6.999472 6.99981 L 204.537001 7.000178 " stroke="#000000" stroke-width="14" stroke-opacity="1" stroke-miterlimit="4"/><path stroke-linecap="round" transform="matrix(-0.259014, -0.703855, 0.703855, -0.259014, 237.289573, 277.628742)" fill="none" stroke-linejoin="miter" d="M 14.499651 14.497763 L 217.110286 14.501212 " stroke="#ffffff" stroke-width="29" stroke-opacity="1" stroke-miterlimit="4"/><path stroke-linecap="butt" transform="matrix(0.75, -0.00000221482, 0.00000221482, 0.75, 177.300389, 173.401952)" fill="none" stroke-linejoin="miter" d="M 0.000502517 7.000523 L 263.50052 7.001301 " stroke="#000000" stroke-width="14" stroke-opacity="1" stroke-miterlimit="4"/><g clip-path="url(#1e3c468e37)"><g transform="matrix(1, 0, 0, 1, 149, 62)"><g clip-path="url(#58637a374b)"><g clip-path="url(#6b4b62c2fb)"><path fill="#000000" d="M 0.945312 0.105469 L 76.15625 0.105469 L 76.15625 54.191406 L 0.945312 54.191406 Z M 0.945312 0.105469 " fill-opacity="1" fill-rule="nonzero"/></g></g></g></g><g clip-path="url(#978c500ccf)"><g transform="matrix(1, 0, 0, 1, 94, 264)"><g clip-path="url(#76ba4c6b55)"><g clip-path="url(#578a02752a)"><path fill="#000000" d="M 0.699219 0.179688 L 174.683594 0.179688 L 174.683594 47.214844 L 0.699219 47.214844 Z M 0.699219 0.179688 " fill-opacity="1" fill-rule="nonzero"/></g></g></g></g><g clip-path="url(#63d978ec9a)"><path fill="#ffffff" d="M 182.414062 103.160156 C 171.207031 103.117188 162.082031 112.160156 162.027344 123.378906 L 202.632812 123.554688 C 202.675781 112.34375 193.632812 103.210938 182.414062 103.160156 Z M 182.414062 103.160156 " fill-opacity="1" fill-rule="nonzero"/></g><g clip-path="url(#a0907e1dad)"><g clip-path="url(#af1dbbc311)"><g clip-path="url(#4fab4f1b0d)"><path fill="#ffffff" d="M 130.359375 271.066406 C 137.945312 271.277344 144.269531 265.304688 144.488281 257.710938 L 117.003906 256.929688 C 116.789062 264.515625 122.765625 270.847656 130.359375 271.066406 Z M 130.359375 271.066406 " fill-opacity="1" fill-rule="nonzero"/></g></g></g><g clip-path="url(#a4257fa2ac)"><g clip-path="url(#bf223730e0)"><g clip-path="url(#8916305444)"><path fill="#ffffff" d="M 244.011719 269.980469 C 251.601562 270.191406 257.925781 264.21875 258.144531 256.625 L 230.65625 255.84375 C 230.445312 263.429688 236.421875 269.761719 244.011719 269.980469 Z M 244.011719 269.980469 " fill-opacity="1" fill-rule="nonzero"/></g></g></g><path stroke-linecap="round" transform="matrix(0.217454, -0.717784, 0.717784, 0.217454, 156.982612, 214.548003)" fill="none" stroke-linejoin="miter" d="M 6.997744 6.997991 L 74.898901 6.998343 " stroke="#000000" stroke-width="14" stroke-opacity="1" stroke-miterlimit="4"/><path stroke-linecap="butt" transform="matrix(0.75, 0, 0, 0.75, 200.301143, 205.573551)" fill="none" stroke-linejoin="miter" d="M -0.000481729 7.00089 L 56.62973 7.00089 " stroke="#000000" stroke-width="14" stroke-opacity="1" stroke-miterlimit="4"/><path stroke-linecap="butt" transform="matrix(0.259145, 0.703807, -0.703807, 0.259145, 213.075195, 208.835026)" fill="none" stroke-linejoin="miter" d="M -0.000804585 6.99986 L 217.260103 7.001651 " stroke="#000000" stroke-width="14" stroke-opacity="1" stroke-miterlimit="4"/><path stroke-linecap="butt" transform="matrix(-0.216369, 0.718112, -0.718112, -0.216369, 183.638268, 162.202168)" fill="none" stroke-linejoin="miter" d="M -0.000801518 6.997741 L 315.237056 7.002377 " stroke="#000000" stroke-width="14" stroke-opacity="1" stroke-miterlimit="4"/></svg>